<svg width="726" height="694" viewBox="0 0 726 694" fill="none" xmlns="http://www.w3.org/2000/svg">
<path fill-rule="evenodd" clip-rule="evenodd" d="M422.816 78.6717C439.483 69.0491 439.483 44.9929 422.816 35.3704L375.389 7.98828C367.654 3.52246 358.124 3.52246 350.389 7.98828L158.883 118.555C151.148 123.02 146.383 131.274 146.383 140.205V361.338C146.383 370.269 151.148 378.522 158.883 382.988L350.389 493.555C358.124 498.02 367.654 498.02 375.389 493.555L566.896 382.988C574.631 378.522 579.396 370.269 579.396 361.338V140.205C579.396 131.274 574.631 123.02 566.896 118.555L508.546 84.8663C500.811 80.4005 491.281 80.4005 483.546 84.8664L317.04 180.999C300.374 190.621 300.373 214.677 317.04 224.3L350.389 243.554C358.124 248.02 367.654 248.02 375.389 243.555L459.468 195.012C469.468 189.238 481.968 196.455 481.968 208.002V305.088C481.968 314.019 477.203 322.273 469.468 326.738L375.389 381.055C367.654 385.52 358.124 385.52 350.389 381.055L256.311 326.738C248.576 322.273 243.811 314.02 243.811 305.088L243.809 196.455C243.809 187.524 248.574 179.27 256.309 174.805L422.816 78.6717Z" fill="#0D0011"/>
<path d="M78.9781 692.197C69.0369 692.197 59.8346 690.316 51.3712 686.555C42.9078 682.793 35.4519 677.554 29.0036 670.837C22.6896 664.12 17.719 656.261 14.0918 647.26C10.599 638.26 8.85258 628.52 8.85258 618.041C8.85258 608.1 10.6662 598.898 14.2934 590.435C17.9205 581.837 22.9583 574.381 29.4066 568.067C35.8549 561.619 43.4451 556.648 52.1773 553.155C60.9094 549.528 70.3803 547.647 80.5902 547.513C84.7547 547.513 89.1879 547.916 93.8898 548.722C98.7261 549.528 103.428 550.737 107.996 552.349C112.563 553.961 116.526 555.909 119.885 558.193C122.571 559.939 124.922 561.82 126.937 563.835C129.087 565.716 130.162 568 130.162 570.687C130.296 572.03 130.027 573.575 129.356 575.321C128.684 576.933 127.744 578.613 126.534 580.359C124.385 583.449 122.236 585.665 120.086 587.009C118.071 588.352 116.056 589.024 114.041 589.024C112.966 589.024 111.69 588.688 110.212 588.016C108.734 587.345 106.719 586.203 104.167 584.591C102.958 583.785 101.077 582.912 98.5246 581.971C95.9721 581.031 93.0166 580.225 89.6581 579.553C86.434 578.747 83.0755 578.344 79.5826 578.344C71.9252 578.344 65.0739 580.09 59.0286 583.583C52.9833 586.942 48.2142 591.644 44.7214 597.689C41.3629 603.734 39.6165 610.72 39.4821 618.646C39.6165 626.706 41.43 633.961 44.9229 640.409C48.4157 646.723 53.1848 651.761 59.2301 655.522C65.4098 659.284 72.2611 661.165 79.7841 661.165C82.4709 661.165 85.1577 661.03 87.8445 660.762C90.6657 660.493 93.3525 660.09 95.9049 659.553C98.5917 658.881 101.01 658.075 103.159 657.134V632.55H81.5977C79.3139 632.55 77.2317 632.349 75.3509 631.946C73.6045 631.543 72.1268 630.401 70.9177 628.52C69.843 626.639 69.3056 623.549 69.3056 619.25C69.3056 614.952 69.9101 611.929 71.1192 610.183C72.3283 608.302 73.8732 607.16 75.7539 606.757C77.769 606.354 79.8513 606.152 82.0008 606.152H120.086C124.519 606.287 127.676 607.093 129.557 608.57C131.438 610.048 132.647 611.929 133.184 614.213C133.722 616.362 133.99 618.713 133.99 621.266V665.195C133.99 668.419 132.513 671.777 129.557 675.27C126.602 678.629 122.571 681.584 117.467 684.137C114.242 685.883 110.548 687.361 106.383 688.57C102.353 689.645 98.0544 690.518 93.4868 691.19C88.9193 691.861 84.083 692.197 78.9781 692.197ZM278.55 669.225C280.162 672.584 281.036 675.472 281.17 677.89C281.304 680.174 280.565 682.256 278.953 684.137C277.476 685.883 274.99 687.63 271.497 689.376C266.124 691.928 261.959 692.667 259.004 691.593C256.048 690.652 253.294 687.495 250.742 682.122L211.246 599.503L171.951 682.122C169.265 687.361 166.443 690.451 163.488 691.391C160.667 692.466 156.569 691.727 151.196 689.175C147.703 687.562 145.151 685.883 143.538 684.137C142.061 682.256 141.389 680.107 141.523 677.688C141.658 675.136 142.598 672.18 144.345 668.822L197.342 558.596C198.685 555.909 200.633 553.76 203.185 552.148C205.872 550.536 208.626 549.73 211.447 549.73C213.462 549.73 215.343 550.133 217.09 550.939C218.836 551.61 220.381 552.618 221.724 553.961C223.202 555.305 224.411 556.917 225.352 558.797L278.55 669.225ZM177.392 657.739L189.886 631.744H232.807L245.301 657.739H177.392ZM306.355 690.585C301.519 690.585 298.026 689.846 295.877 688.368C293.862 686.891 292.586 685.01 292.048 682.726C291.511 680.308 291.242 677.756 291.242 675.069V564.843C291.242 562.29 291.511 559.939 292.048 557.79C292.586 555.506 293.929 553.625 296.078 552.148C298.228 550.67 301.788 549.931 306.759 549.931C310.117 549.931 312.669 550.133 314.416 550.536C316.162 550.939 317.439 551.543 318.245 552.349C319.051 553.021 319.924 553.827 320.864 554.767L366.204 616.026H363.181L408.723 554.767C409.797 553.424 410.872 552.416 411.947 551.745C413.022 551.073 414.365 550.603 415.977 550.334C417.723 550.065 420.142 549.931 423.231 549.931C428.068 549.931 431.56 550.67 433.71 552.148C435.859 553.625 437.203 555.573 437.74 557.991C438.277 560.275 438.546 562.693 438.546 565.246V675.472C438.546 678.024 438.277 680.442 437.74 682.726C437.203 685.01 435.859 686.891 433.71 688.368C431.56 689.846 428 690.585 423.03 690.585C418.194 690.585 414.701 689.846 412.551 688.368C410.402 686.891 409.058 684.943 408.521 682.525C407.984 680.107 407.715 677.621 407.715 675.069V603.13L377.69 645.648C377.153 646.32 376.414 647.26 375.473 648.469C374.533 649.544 373.19 650.485 371.443 651.291C369.831 652.097 367.615 652.5 364.793 652.5C361.838 652.5 359.487 652.097 357.741 651.291C356.128 650.485 354.852 649.544 353.912 648.469C352.971 647.395 352.165 646.454 351.494 645.648L321.67 603.331V675.472C321.67 678.024 321.402 680.442 320.864 682.726C320.327 685.01 318.983 686.891 316.834 688.368C314.819 689.846 311.326 690.585 306.355 690.585ZM515.816 692.399C506.009 692.399 497.344 690.518 489.821 686.756C482.432 682.861 476.118 677.756 470.879 671.442C465.774 664.993 461.945 657.806 459.393 649.88C456.84 641.82 455.564 633.625 455.564 625.296V565.044C455.564 562.357 455.766 559.872 456.169 557.588C456.706 555.17 458.05 553.222 460.199 551.745C462.348 550.267 465.908 549.528 470.879 549.528C475.984 549.528 479.611 550.267 481.761 551.745C483.91 553.222 485.186 555.17 485.589 557.588C486.127 559.872 486.395 562.425 486.395 565.246V625.296C486.395 631.207 487.336 636.916 489.216 642.424C491.232 647.932 494.456 652.5 498.889 656.127C503.322 659.754 509.166 661.568 516.42 661.568C522.6 661.568 527.906 660.09 532.34 657.134C536.773 654.045 540.198 649.813 542.617 644.439C545.035 638.931 546.244 632.483 546.244 625.094V563.835C546.244 561.417 546.512 559.133 547.05 556.984C547.587 554.834 548.931 553.088 551.08 551.745C553.229 550.267 556.789 549.528 561.76 549.528C566.731 549.528 570.223 550.334 572.239 551.946C574.388 553.424 575.664 555.305 576.067 557.588C576.605 559.872 576.873 562.425 576.873 565.246V625.699C576.873 634.162 575.53 642.357 572.843 650.283C570.291 658.209 566.395 665.329 561.156 671.643C556.051 677.957 549.669 682.995 542.012 686.756C534.489 690.518 525.757 692.399 515.816 692.399ZM712.989 686.958C709.899 689.645 707.212 691.391 704.928 692.197C702.644 693.003 700.428 692.869 698.278 691.794C696.263 690.719 693.98 688.704 691.427 685.749L596.516 575.12C592.754 571.09 590.874 567.462 590.874 564.238C590.874 561.014 593.09 557.454 597.523 553.558C600.479 550.737 603.098 548.923 605.382 548.117C607.666 547.311 609.883 547.446 612.032 548.52C614.182 549.595 616.532 551.677 619.085 554.767L713.996 665.598C717.758 669.762 719.638 673.39 719.638 676.479C719.773 679.569 717.556 683.062 712.989 686.958ZM597.523 686.958C593.09 683.062 590.874 679.569 590.874 676.479C590.874 673.39 592.754 669.762 596.516 665.598L691.427 554.767C693.98 551.677 696.33 549.595 698.48 548.52C700.629 547.446 702.846 547.311 705.13 548.117C707.414 548.923 710.033 550.737 712.989 553.558C717.556 557.454 719.773 561.014 719.638 564.238C719.638 567.462 717.758 571.09 713.996 575.12L619.085 685.749C616.667 688.704 614.383 690.719 612.234 691.794C610.084 692.869 607.868 693.003 605.584 692.197C603.3 691.391 600.613 689.645 597.523 686.958Z" fill="#0D0011"/>
</svg>
