<?xml version="1.0" encoding="UTF-8" standalone="no"?>
<svg
   width="433.013"
   height="492.26483"
   viewBox="0 0 433.013 492.26483"
   fill="none"
   version="1.1"
   id="svg2"
   xmlns="http://www.w3.org/2000/svg"
   xmlns:svg="http://www.w3.org/2000/svg">
  <defs
     id="defs2" />
  <path
     fill-rule="evenodd"
     clip-rule="evenodd"
     d="m 276.433,74.032785 c 16.667,-9.6226 16.667,-33.6788 0,-43.3013 L 229.006,3.349365 c -7.735,-4.46582 -17.265,-4.46582 -25,0 L 12.5,113.91609 c -7.735,4.465 -12.5,12.719 -12.5,21.65 v 221.133 c 0,8.93099 4.765,17.184 12.5,21.64999 l 191.506,110.567 c 7.735,4.465 17.265,4.465 25,0 l 191.507,-110.567 c 7.735,-4.466 12.5,-12.719 12.5,-21.64999 v -221.133 c 0,-8.931 -4.765,-17.185 -12.5,-21.65 l -58.35,-33.688705 c -7.735,-4.4658 -17.265,-4.4658 -25,1e-4 L 170.657,176.36008 c -16.666,9.622 -16.667,33.678 0,43.30101 l 33.349,19.25399 c 7.735,4.46601 17.265,4.46601 25,0.001 l 84.079,-48.543 c 10,-5.774 22.5,1.44301 22.5,12.99 v 97.08601 c 0,8.93099 -4.765,17.185 -12.5,21.64999 l -94.079,54.317 c -7.735,4.465 -17.265,4.465 -25,0 l -94.078,-54.317 c -7.735,-4.46499 -12.5,-12.718 -12.5,-21.64999 l -0.002,-108.633 c 0,-8.931 4.765,-17.185 12.5,-21.65 z"
     fill="#0d0011"
     id="path1" />
</svg>
